<svg width="33" height="33" viewBox="0 0 33 33" fill="none" xmlns="http://www.w3.org/2000/svg">
<path opacity="0.8" d="M31.8589 17.7026C33.7651 10.0339 25.8113 2.28029 18.575 0.915283C14.5982 0.16526 10.4603 0.879318 7.06741 3.07921C4.15408 4.96848 1.17384 8.32727 0.807463 11.8788C0.799406 11.9561 0.822362 12.0205 0.858287 12.0757C-1.43585 17.9421 1.06402 25.3182 6.09741 29.039C11.0886 32.7293 19.2916 34.0237 24.5988 30.1682C25.0466 29.843 24.6723 29.1937 24.1605 29.4303C23.9679 29.5194 23.7758 29.6076 23.584 29.6945C23.4866 29.5269 23.2869 29.4199 23.0362 29.5382C19.503 31.208 14.5972 30.3639 11.1045 29.1234C10.7107 28.9838 10.4395 29.6101 10.8178 29.7928C12.6782 30.6904 14.7003 31.2188 16.7714 31.3284C17.6371 31.3743 18.5052 31.343 19.3671 31.2523C18.0502 31.5805 16.6881 31.7347 15.2244 31.6026C12.2508 31.3338 9.62091 30.2313 7.16218 28.5946C4.28015 26.676 2.31223 24.3378 1.37894 20.994C0.570386 18.096 0.527621 15.0449 1.42158 12.1769C1.46057 12.1489 1.49532 12.115 1.51991 12.069C1.67582 11.7764 1.82813 11.4879 1.97946 11.2015C1.09583 13.4708 0.834995 15.988 1.23155 18.3903C1.98353 22.9418 4.55819 25.9511 8.3502 28.4202C8.80514 28.7167 9.26074 27.9549 8.77794 27.7003C5.41182 25.9248 2.74273 21.8804 2.1778 18.1867C1.55386 14.1046 3.04356 10.2772 5.48064 7.02748C5.68868 6.7503 5.24785 6.44805 5.00997 6.67004C4.60981 7.04422 4.23999 7.44432 3.89933 7.86573C4.45851 7.03042 5.08262 6.24277 5.83229 5.51281C5.66165 5.79919 5.93541 6.23399 6.28198 6.01241C7.16776 5.44593 8.02235 4.84516 8.94137 4.32968C9.59581 3.96219 10.2939 3.66787 10.9659 3.33216C11.0737 3.36686 11.2003 3.37354 11.3457 3.33675C16.2217 2.1026 21.0765 2.63523 24.8767 6.18467C25.0244 6.32263 25.2061 6.26075 25.2951 6.13616C25.2602 6.31301 25.3568 6.51912 25.5935 6.51912C26.0056 6.51912 26.0064 5.88824 25.5935 5.88824C25.4772 5.88824 25.3975 5.9405 25.3471 6.01199C25.3559 5.94091 25.3362 5.86484 25.2712 5.79628C24.003 4.46472 22.4044 3.35222 20.6477 2.5721C25.7861 4.44632 30.0572 9.0284 30.6724 14.3178C30.2889 12.6272 29.583 10.995 28.5442 9.51796C28.2815 9.14503 27.6957 9.46904 27.9193 9.8775C29.3001 12.3939 29.9523 15.1456 30.0438 17.996C30.1395 20.974 28.9778 23.5129 27.3889 25.9699C27.2273 26.2199 27.6008 26.5247 27.8073 26.3186C27.9021 26.3675 28.0226 26.3679 28.1229 26.2747C30.4177 24.1446 32.0964 20.9472 31.8706 17.7506C31.8694 17.7327 31.8618 17.7193 31.8589 17.7026Z" fill="white" fill-opacity="0.6"/>
</svg>
