<svg width="17" height="17" viewBox="0 0 17 17" fill="none" xmlns="http://www.w3.org/2000/svg">
<path fill-rule="evenodd" clip-rule="evenodd" d="M7.12559 0.446778C7.2956 0.446511 7.47848 0.446594 7.67585 0.446682L8.00114 0.446778C10.607 0.446778 10.9159 0.456138 11.945 0.502939C12.8966 0.546484 13.413 0.705606 13.7571 0.839293C14.2125 1.01632 14.5373 1.22794 14.8787 1.56979C15.2203 1.91164 15.4317 2.23721 15.609 2.69301C15.7426 3.03689 15.9018 3.55373 15.9451 4.50602C15.9919 5.53564 16.0021 5.84493 16.0021 8.45153C16.0021 11.0581 15.9919 11.3674 15.9451 12.397C15.9016 13.3493 15.7426 13.8662 15.609 14.21C15.4321 14.6658 15.2203 14.9904 14.8787 15.332C14.5371 15.6739 14.2127 15.8855 13.7571 16.0625C13.4134 16.1968 12.8966 16.3555 11.945 16.3991C10.9161 16.4459 10.607 16.4561 8.00114 16.4561C5.39502 16.4561 5.08616 16.4459 4.0573 16.3991C3.1057 16.3551 2.58924 16.196 2.245 16.0623C1.78953 15.8853 1.4642 15.6737 1.1226 15.3318C0.781001 14.99 0.569535 14.6652 0.392229 14.2092C0.258639 13.8653 0.0994297 13.3485 0.0561198 12.3962C0.0093533 11.3666 0 11.0573 0 8.44908C0 5.84086 0.0093533 5.5332 0.0561198 4.50358C0.099633 3.55129 0.258639 3.03445 0.392229 2.69016C0.569128 2.23436 0.781001 1.90879 1.1226 1.56694C1.4642 1.22509 1.78953 1.01347 2.245 0.836037C2.58903 0.70174 3.1057 0.543024 4.0573 0.499276C4.95766 0.45858 5.30657 0.446371 7.12559 0.444336V0.446778ZM13.2114 2.06867C12.5648 2.06867 12.0402 2.59291 12.0402 3.24001C12.0402 3.88691 12.5648 4.41176 13.2114 4.41176C13.858 4.41176 14.3826 3.88691 14.3826 3.24001C14.3826 2.59311 13.858 2.06827 13.2114 2.06827V2.06867ZM2.98914 8.45457C2.98914 5.68465 5.23322 3.43887 8.00112 3.43877C10.7691 3.43877 13.0127 5.68459 13.0127 8.45457C13.0127 11.2246 10.7693 13.4694 8.00132 13.4694C5.23333 13.4694 2.98914 11.2246 2.98914 8.45457Z" fill="white"/>
<path fill-rule="evenodd" clip-rule="evenodd" d="M8.00134 5.19824C9.79798 5.19824 11.2546 6.65577 11.2546 8.45393C11.2546 10.2519 9.79798 11.7096 8.00134 11.7096C6.20451 11.7096 4.74805 10.2519 4.74805 8.45393C4.74805 6.65577 6.20451 5.19824 8.00134 5.19824V5.19824Z" fill="white"/>
</svg>
