<svg width="15" height="16" viewBox="0 0 15 16" fill="none" xmlns="http://www.w3.org/2000/svg">
<path d="M6.5 0.961914C8.22391 0.961914 9.87721 1.64411 11.0962 2.85843C12.3152 4.07274 13 5.71971 13 7.43701C13 9.04084 12.41 10.5152 11.44 11.6508L11.7494 11.2594L12.5 11.9198L14.5 13.9121L13 15.4064L11 13.414L10.237 12.7375L10.73 12.3581C9.5 13.414 8.11 13.9121 6.5 13.9121C4.77609 13.9121 3.12279 13.2299 1.90381 12.0156C0.684819 10.8013 0 9.15431 0 7.43701C0 5.71971 0.684819 4.07274 1.90381 2.85843C3.12279 1.64411 4.77609 0.961914 6.5 0.961914ZM6.5 2.95425C4 2.95425 2 4.94659 2 7.43701C2 9.92743 4 11.9198 6.5 11.9198C9 11.9198 11 9.92743 11 7.43701C11 4.94659 9 2.95425 6.5 2.95425Z" fill="white"/>
</svg>
