<svg width="16" height="17" viewBox="0 0 16 17" fill="none" xmlns="http://www.w3.org/2000/svg">
<path fill-rule="evenodd" clip-rule="evenodd" d="M9.49382 0.345761C10.3853 0.451634 11.1057 0.655995 11.8961 1.02287C12.6735 1.38484 13.171 1.72709 13.8293 2.35003C14.4461 2.93851 14.7881 3.38419 15.1509 4.07607C15.6563 5.04129 15.9439 6.18869 15.9931 7.45183C16.0113 7.88271 15.9983 7.97876 15.8947 8.10186C15.6977 8.34073 15.2649 8.30129 15.1172 8.03292C15.0706 7.94427 15.0576 7.86798 15.0421 7.52324C15.0161 6.99385 14.9773 6.6516 14.8995 6.24286C14.5938 4.63995 13.7852 3.35956 12.4947 2.44113C11.4193 1.67292 10.3075 1.29864 8.85117 1.21739C8.35879 1.19031 8.27327 1.17309 8.16185 1.09183C7.95449 0.936697 7.94416 0.572297 8.14368 0.402403C8.26548 0.296506 8.35099 0.281741 8.77341 0.294053C8.99369 0.301436 9.31759 0.326061 9.49382 0.345761Z" fill="white"/>
<path fill-rule="evenodd" clip-rule="evenodd" d="M3.22794 0.366941C3.32049 0.398312 3.46325 0.471522 3.54522 0.523835C4.04751 0.853352 5.44612 2.62376 5.90352 3.50769C6.16523 4.01239 6.25247 4.38635 6.17055 4.66356C6.0859 4.96168 5.94582 5.1186 5.31922 5.61809C5.06805 5.81943 4.83273 6.02603 4.79575 6.08095C4.70056 6.21695 4.62387 6.48368 4.62387 6.67197C4.62655 7.10869 4.91207 7.90107 5.2875 8.5104C5.57829 8.98374 6.09912 9.59041 6.61468 10.0559C7.22012 10.6051 7.75417 10.979 8.35697 11.2746C9.1316 11.6564 9.60487 11.7531 9.95122 11.5936C10.0385 11.5544 10.131 11.5021 10.1601 11.4786C10.1865 11.455 10.3901 11.2092 10.6122 10.9372C11.0405 10.4037 11.1383 10.3174 11.4317 10.2181C11.8046 10.0926 12.1853 10.1265 12.5686 10.3201C12.8594 10.4691 13.4939 10.8588 13.9037 11.1412C14.443 11.5152 15.5958 12.4461 15.7518 12.6318C16.0267 12.9666 16.0743 13.3954 15.8892 13.8688C15.6936 14.3682 14.9322 15.3045 14.4008 15.7046C13.9196 16.0655 13.5785 16.204 13.1291 16.225C12.759 16.2433 12.6056 16.2119 12.1324 16.0184C8.42044 14.5042 5.4567 12.2448 3.10366 9.14063C1.87431 7.51927 0.938374 5.83776 0.298543 4.09347C-0.0742097 3.07621 -0.0927036 2.63424 0.213942 2.11384C0.346162 1.89418 0.909294 1.35022 1.31908 1.04689C2.00121 0.544768 2.31581 0.359086 2.56698 0.306798C2.73882 0.270179 3.03756 0.298942 3.22794 0.366941Z" fill="white"/>
<path fill-rule="evenodd" clip-rule="evenodd" d="M9.01647 2.99232C10.5465 3.20543 11.7312 3.88075 12.5075 4.97751C12.9436 5.59534 13.2158 6.32093 13.3091 7.0992C13.3418 7.38418 13.3418 7.90383 13.3066 7.99005C13.2738 8.07145 13.1679 8.18162 13.0772 8.2271C12.9789 8.275 12.7697 8.27023 12.6537 8.21274C12.4596 8.11936 12.4017 7.97087 12.4017 7.56857C12.4017 6.94835 12.2328 6.29459 11.9404 5.78691C11.6077 5.2074 11.1237 4.72847 10.5339 4.39559C10.0273 4.10823 9.27864 3.89511 8.59555 3.84244C8.34851 3.82326 8.2124 3.77537 8.11914 3.67241C7.9755 3.51674 7.96033 3.30601 8.08132 3.13121C8.2124 2.93723 8.41404 2.9061 9.01647 2.99232Z" fill="white"/>
<path fill-rule="evenodd" clip-rule="evenodd" d="M8.90542 5.32173C9.34583 5.4125 9.68343 5.57457 9.97181 5.83606C10.3429 6.17531 10.5464 6.58592 10.6358 7.17588C10.6961 7.56054 10.6716 7.71181 10.5307 7.83715C10.3988 7.95384 10.1552 7.95817 10.0076 7.84796C9.90027 7.77015 9.86673 7.68804 9.84214 7.46547C9.8131 7.1694 9.75942 6.96194 9.66779 6.7696C9.47104 6.36118 9.12453 6.14939 8.53882 6.08024C8.2638 6.04782 8.18108 6.01757 8.09168 5.91602C7.92847 5.728 7.99106 5.4233 8.21685 5.31092C8.30184 5.26986 8.33761 5.26554 8.52537 5.27634C8.64163 5.28283 8.81379 5.30227 8.90542 5.32173Z" fill="white"/>
</svg>
