<svg width="23" height="17" viewBox="0 0 23 17" fill="none" xmlns="http://www.w3.org/2000/svg">
<path fill-rule="evenodd" clip-rule="evenodd" d="M21.7957 2.63798C21.5397 1.65378 20.7853 0.878756 19.8275 0.615724C18.0916 0.137695 11.1304 0.137695 11.1304 0.137695C11.1304 0.137695 4.16923 0.137695 2.43326 0.615724C1.47541 0.878756 0.721075 1.65378 0.465075 2.63798C0 4.42175 0 8.14358 0 8.14358C0 8.14358 0 11.8653 0.465075 13.6492C0.721075 14.6334 1.47541 15.4084 2.43326 15.6716C4.16923 16.1495 11.1304 16.1495 11.1304 16.1495C11.1304 16.1495 18.0916 16.1495 19.8275 15.6716C20.7853 15.4084 21.5397 14.6334 21.7957 13.6492C22.2609 11.8653 22.2609 8.14358 22.2609 8.14358C22.2609 8.14358 22.2609 4.42175 21.7957 2.63798Z" fill="white"/>
<path fill-rule="evenodd" clip-rule="evenodd" d="M9.04297 11.9724V5.01074L14.6082 8.49169L9.04297 11.9724Z" fill="#0D1651"/>
</svg>
